<svg width="800" height="600" viewBox="0 0 800 600" xmlns="http://www.w3.org/2000/svg">
  <!-- Background -->
  <rect width="800" height="600" fill="#87CEEB" />

  <!-- Ground -->
  <path d="M0,500 Q400,450 800,500 L800,600 L0,600 Z" fill="#3B5323" />

  <!-- Tent -->
  <path d="M400,250 Q375,350 350,500 Q400,475 450,500 Q425,350 400,250" fill="#FF6347" />
  <path d="M400,250 Q350,350 300,450 Q350,425 400,450 Q375,350 400,250" fill="#CD5C5C" />
  <line x1="400" y1="250" x2="400" y2="450" stroke="#000" stroke-width="2" />

  <!-- Trees -->
  <path d="M150,400 Q137.5,450 125,500 Q150,475 175,500 Q162.5,450 150,400" fill="#228B22" />
  <path d="M150,350 Q132.5,400 115,450 Q150,425 185,450 Q167.5,400 150,350" fill="#228B22" />
  <path d="M150,300 Q127.5,350 105,400 Q150,375 195,400 Q172.5,350 150,300" fill="#228B22" />
  <rect x="140" y="500" width="20" height="50" fill="#8B4513" />

  <path d="M650,400 Q637.5,450 625,500 Q650,475 675,500 Q662.5,450 650,400" fill="#228B22" />
  <path d="M650,350 Q632.5,400 615,450 Q650,425 685,450 Q667.5,400 650,350" fill="#228B22" />
  <path d="M650,300 Q627.5,350 605,400 Q650,375 695,400 Q672.5,350 650,300" fill="#228B22" />
  <rect x="640" y="500" width="20" height="50" fill="#8B4513" />

  <!-- Campfire -->
  <circle cx="400" cy="550" r="20" fill="#D2691E" />
  <path d="M380,550 Q390,570 410,570 Q420,550 380,550" fill="#FF4500" />
  <path d="M390,530 Q400,550 410,530 Q400,510 390,530" fill="#FFD700" />
  
  <!-- Stars -->
  <circle cx="100" cy="100" r="3" fill="white" />
  <circle cx="200" cy="150" r="3" fill="white" />
  <circle cx="300" cy="100" r="3" fill="white" />
  <circle cx="500" cy="80" r="3" fill="white" />
  <circle cx="600" cy="120" r="3" fill="white" />
  <circle cx="700" cy="90" r="3" fill="white" />
</svg>
